<?xml version="1.0" encoding="UTF-8" standalone="no"?>
<svg viewBox="0 0 500 500" xmlns="http://www.w3.org/2000/svg">
    <path d="M 120 195 C 120 92.896 202.896 10 305 10 C 407.104 10 490 92.896 490 195 C 490 297.104 407.104 380 305 380 C 202.896 380 120 297.104 120 195 Z  M 180 195 C 179.99 186.52 180.85 178.06 182.55 169.75 C 184.18 161.76 186.61 153.94 189.8 146.42 C 196.1 131.55 205.21 118.05 216.64 106.64 C 228.05 95.21 241.55 86.1 256.42 79.8 C 263.94 76.61 271.76 74.18 279.76 72.54 C 288.07 70.85 296.52 69.99 305 70 C 313.48 69.99 321.93 70.85 330.24 72.54 C 338.24 74.18 346.06 76.61 353.58 79.8 C 368.45 86.1 381.95 95.21 393.36 106.64 C 404.79 118.05 413.9 131.55 420.2 146.42 C 423.39 153.94 425.82 161.76 427.46 169.76 C 429.15 178.07 430.01 186.52 430 195 C 430.01 203.48 429.15 211.93 427.46 220.24 C 425.82 228.24 423.39 236.06 420.2 243.58 C 413.9 258.45 404.79 271.95 393.36 283.36 C 381.95 294.79 368.45 303.9 353.58 310.2 C 346.06 313.39 338.24 315.82 330.24 317.46 C 321.93 319.15 313.48 320.01 305 320 C 296.52 320.01 288.07 319.15 279.76 317.46 C 271.76 315.82 263.94 313.39 256.42 310.2 C 241.55 303.9 228.05 294.79 216.64 283.36 C 205.21 271.95 196.1 258.45 189.8 243.58 C 186.61 236.06 184.18 228.24 182.54 220.24 C 180.85 211.93 179.99 203.48 180 195 Z  M 13 490 L 13 413.148 L 126.148 300 L 203 376.852 L 89.852 490 L 13 490 Z  M 205 160 L 270 160 L 270 95 L 340 95 L 340 160 L 405 160 L 405 230 L 340 230 L 340 295 L 270 295 L 270 230 L 205 230 L 205 160 Z" fill="currentColor" stroke="none" fill-rule="evenodd"></path>
</svg>